<mxfile host="app.diagrams.net" agent="Mozilla/5.0 (Windows NT 10.0; Win64; x64) AppleWebKit/537.36 (KHTML, like Gecko) Chrome/124.0.0.0 Safari/537.36 SLBrowser/9.0.5.8121 SLBChan/33 SLBVPV/64-bit" version="24.7.17">
  <diagram name="第 1 页" id="nWn2gFBcB-ivOAz__Utz">
    <mxGraphModel dx="2117" dy="541" grid="1" gridSize="10" guides="1" tooltips="1" connect="1" arrows="1" fold="1" page="1" pageScale="1" pageWidth="827" pageHeight="1169" math="0" shadow="0">
      <root>
        <mxCell id="0" />
        <mxCell id="1" parent="0" />
        <mxCell id="bQKy__8KbxPK9pwoSaiY-11" value="" style="rounded=0;whiteSpace=wrap;html=1;" vertex="1" parent="1">
          <mxGeometry x="130" y="80" width="670" height="395" as="geometry" />
        </mxCell>
        <mxCell id="bQKy__8KbxPK9pwoSaiY-1" value="&lt;font style=&quot;font-size: 18px;&quot;&gt;堡垒机&lt;/font&gt;" style="image;html=1;image=img/lib/clip_art/networking/Cloud_Computer_Private_128x128.png" vertex="1" parent="1">
          <mxGeometry x="-280" y="212.5" width="140" height="130" as="geometry" />
        </mxCell>
        <mxCell id="bQKy__8KbxPK9pwoSaiY-4" value="" style="html=1;whiteSpace=wrap;shape=isoCube2;backgroundOutline=1;isoAngle=15;" vertex="1" parent="1">
          <mxGeometry x="295" y="370" width="90" height="100" as="geometry" />
        </mxCell>
        <mxCell id="bQKy__8KbxPK9pwoSaiY-5" value="" style="html=1;whiteSpace=wrap;shape=isoCube2;backgroundOutline=1;isoAngle=15;" vertex="1" parent="1">
          <mxGeometry x="285" y="90" width="90" height="100" as="geometry" />
        </mxCell>
        <mxCell id="bQKy__8KbxPK9pwoSaiY-8" value="" style="endArrow=classic;html=1;rounded=0;exitX=0;exitY=0;exitDx=90;exitDy=78.39291168278956;exitPerimeter=0;" edge="1" parent="1" source="bQKy__8KbxPK9pwoSaiY-5">
          <mxGeometry width="50" height="50" relative="1" as="geometry">
            <mxPoint x="405" y="300" as="sourcePoint" />
            <mxPoint x="600" y="250" as="targetPoint" />
          </mxGeometry>
        </mxCell>
        <mxCell id="bQKy__8KbxPK9pwoSaiY-9" value="" style="endArrow=classic;html=1;rounded=0;entryX=0.996;entryY=0.43;entryDx=0;entryDy=0;entryPerimeter=0;" edge="1" parent="1" source="bQKy__8KbxPK9pwoSaiY-2" target="bQKy__8KbxPK9pwoSaiY-4">
          <mxGeometry width="50" height="50" relative="1" as="geometry">
            <mxPoint x="515" y="430" as="sourcePoint" />
            <mxPoint x="565" y="380" as="targetPoint" />
          </mxGeometry>
        </mxCell>
        <mxCell id="bQKy__8KbxPK9pwoSaiY-12" value="" style="shape=flexArrow;endArrow=classic;html=1;rounded=0;exitX=1;exitY=0.5;exitDx=0;exitDy=0;" edge="1" parent="1" source="bQKy__8KbxPK9pwoSaiY-1" target="bQKy__8KbxPK9pwoSaiY-11">
          <mxGeometry width="50" height="50" relative="1" as="geometry">
            <mxPoint x="-10" y="290" as="sourcePoint" />
            <mxPoint x="40" y="240" as="targetPoint" />
          </mxGeometry>
        </mxCell>
        <mxCell id="bQKy__8KbxPK9pwoSaiY-13" value="&lt;font style=&quot;font-size: 24px;&quot;&gt;安全网关&lt;/font&gt;" style="edgeLabel;html=1;align=center;verticalAlign=middle;resizable=0;points=[];" vertex="1" connectable="0" parent="bQKy__8KbxPK9pwoSaiY-12">
          <mxGeometry x="-0.2356" y="8" relative="1" as="geometry">
            <mxPoint y="1" as="offset" />
          </mxGeometry>
        </mxCell>
        <mxCell id="bQKy__8KbxPK9pwoSaiY-16" value="&lt;font style=&quot;font-size: 14px;&quot;&gt;&lt;b&gt;ServiceA&lt;/b&gt;&lt;/font&gt;" style="text;html=1;align=center;verticalAlign=middle;whiteSpace=wrap;rounded=0;" vertex="1" parent="1">
          <mxGeometry x="220" y="130" width="60" height="30" as="geometry" />
        </mxCell>
        <mxCell id="bQKy__8KbxPK9pwoSaiY-17" value="&lt;font style=&quot;font-size: 14px;&quot;&gt;&lt;b&gt;ServiceB&lt;/b&gt;&lt;/font&gt;" style="text;html=1;align=center;verticalAlign=middle;whiteSpace=wrap;rounded=0;" vertex="1" parent="1">
          <mxGeometry x="225" y="405" width="60" height="30" as="geometry" />
        </mxCell>
        <mxCell id="bQKy__8KbxPK9pwoSaiY-18" value="" style="group" vertex="1" connectable="0" parent="1">
          <mxGeometry x="545" y="250" width="120" height="60" as="geometry" />
        </mxCell>
        <mxCell id="bQKy__8KbxPK9pwoSaiY-2" value="" style="shape=process;whiteSpace=wrap;html=1;backgroundOutline=1;" vertex="1" parent="bQKy__8KbxPK9pwoSaiY-18">
          <mxGeometry width="120" height="60" as="geometry" />
        </mxCell>
        <mxCell id="bQKy__8KbxPK9pwoSaiY-15" value="" style="shape=datastore;whiteSpace=wrap;html=1;" vertex="1" parent="bQKy__8KbxPK9pwoSaiY-18">
          <mxGeometry x="30" width="60" height="60" as="geometry" />
        </mxCell>
        <mxCell id="bQKy__8KbxPK9pwoSaiY-19" value="&lt;font style=&quot;font-size: 14px;&quot;&gt;&lt;b&gt;消息中间件&lt;/b&gt;&lt;/font&gt;" style="text;html=1;align=center;verticalAlign=middle;whiteSpace=wrap;rounded=0;" vertex="1" parent="1">
          <mxGeometry x="665" y="262.5" width="75" height="30" as="geometry" />
        </mxCell>
      </root>
    </mxGraphModel>
  </diagram>
</mxfile>
